<svg viewBox="0 0 800 220" xmlns="http://www.w3.org/2000/svg" font-family="sans-serif"><rect x="12" y="24" width="170" height="172" rx="16" fill="#1F7A5C"/><text x="28" y="54" font-size="12" font-weight="700" fill="#ffffff" fill-opacity="0.8" letter-spacing="1.5">ВОПРОС</text><text x="26" y="82" font-size="15" font-weight="600" fill="#ffffff">Дрейф и сбои</text><text x="26" y="102" font-size="15" font-weight="600" fill="#ffffff">датчиков без</text><text x="26" y="122" font-size="15" font-weight="600" fill="#ffffff">калибровки</text><path d="M188 110 L206 110" stroke="#1F7A5C" stroke-width="3"/><path d="M200 104 L208 110 L200 116" fill="none" stroke="#1F7A5C" stroke-width="3"/><rect x="212" y="24" width="170" height="172" rx="16" fill="#4FBF8A"/><text x="228" y="54" font-size="12" font-weight="700" fill="#ffffff" fill-opacity="0.8" letter-spacing="1.5">МЕТОД</text><text x="226" y="82" font-size="15" font-weight="600" fill="#ffffff">TCN с</text><text x="226" y="102" font-size="15" font-weight="600" fill="#ffffff">ограничениями</text><text x="226" y="122" font-size="15" font-weight="600" fill="#ffffff">механики</text><text x="226" y="142" font-size="15" font-weight="600" fill="#ffffff">полимеров</text><path d="M388 110 L406 110" stroke="#1F7A5C" stroke-width="3"/><path d="M400 104 L408 110 L400 116" fill="none" stroke="#1F7A5C" stroke-width="3"/><rect x="412" y="24" width="170" height="172" rx="16" fill="#1F7A5C"/><text x="428" y="54" font-size="12" font-weight="700" fill="#ffffff" fill-opacity="0.8" letter-spacing="1.5">РЕЗУЛЬТАТ</text><text x="426" y="82" font-size="15" font-weight="600" fill="#ffffff">Разделение</text><text x="426" y="102" font-size="15" font-weight="600" fill="#ffffff">газов и самоди</text><text x="426" y="122" font-size="15" font-weight="600" fill="#ffffff">агностика</text><path d="M588 110 L606 110" stroke="#1F7A5C" stroke-width="3"/><path d="M600 104 L608 110 L600 116" fill="none" stroke="#1F7A5C" stroke-width="3"/><rect x="612" y="24" width="170" height="172" rx="16" fill="#4FBF8A"/><text x="628" y="54" font-size="12" font-weight="700" fill="#ffffff" fill-opacity="0.8" letter-spacing="1.5">ЗАЧЕМ</text><text x="626" y="82" font-size="15" font-weight="600" fill="#ffffff">Автономный</text><text x="626" y="102" font-size="15" font-weight="600" fill="#ffffff">мониторинг тех</text><text x="626" y="122" font-size="15" font-weight="600" fill="#ffffff">нологических</text><text x="626" y="142" font-size="15" font-weight="600" fill="#ffffff">сред</text></svg>